<svg width="47" height="13" viewBox="0 0 47 13" fill="none" xmlns="http://www.w3.org/2000/svg">
<path d="M8.65796 12.6H10.296C10.494 12.6 10.584 12.474 10.53 12.276L6.65996 0.233975C6.60596 0.0719749 6.49796 -2.52724e-05 6.33596 -2.52724e-05H4.22996C4.06796 -2.52724e-05 3.95996 0.0719749 3.90596 0.233975L0.0539609 12.276C-3.9041e-05 12.474 0.0899609 12.6 0.287961 12.6H1.92596C2.08796 12.6 2.19596 12.528 2.24996 12.366L2.80796 10.512C2.82596 10.44 2.87996 10.422 2.93396 10.422H7.64996C7.70396 10.422 7.75796 10.44 7.77596 10.512L8.33396 12.366C8.38796 12.528 8.49596 12.6 8.65796 12.6ZM3.36596 8.65798L5.21996 2.53798C5.25596 2.44798 5.32796 2.44798 5.36396 2.53798L7.21796 8.65798C7.23596 8.74798 7.19996 8.78398 7.12796 8.78398H3.45596C3.38396 8.78398 3.34796 8.74798 3.36596 8.65798ZM19.8773 5.77798C19.3553 4.22997 18.1853 3.25797 16.4033 3.25797C15.5213 3.25797 14.8553 3.58197 14.3513 4.13998C14.2973 4.21198 14.2253 4.19398 14.2253 4.10397V0.287975C14.2253 0.107975 14.1173 -2.52724e-05 13.9373 -2.52724e-05H12.4253C12.2453 -2.52724e-05 12.1373 0.107975 12.1373 0.287975V12.312C12.1373 12.492 12.2453 12.6 12.4253 12.6H13.9373C14.1173 12.6 14.2253 12.492 14.2253 12.312V11.844C14.2253 11.754 14.2973 11.718 14.3513 11.808C14.8373 12.402 15.5213 12.744 16.4033 12.744C18.1313 12.744 19.3373 11.754 19.8593 10.224C20.0753 9.55798 20.1833 8.80198 20.1833 7.97398C20.1833 7.16398 20.0933 6.42598 19.8773 5.77798ZM17.5913 10.062C17.2853 10.62 16.7633 10.926 16.0793 10.926C15.4493 10.926 14.9993 10.62 14.6753 10.08C14.3873 9.59398 14.2613 8.85598 14.2613 7.99198C14.2613 7.07398 14.4053 6.35398 14.7113 5.84998C15.0173 5.34598 15.4673 5.05798 16.0613 5.05798C16.6913 5.05798 17.1773 5.32798 17.5013 5.81398C17.8433 6.33598 18.0233 7.07398 18.0233 8.00998C18.0233 8.85598 17.8793 9.55798 17.5913 10.062ZM25.8288 12.744C27.6828 12.744 29.1048 11.718 29.6448 10.008C29.8428 9.41398 29.9508 8.65798 29.9508 7.95598C29.9508 7.23598 29.8428 6.47998 29.6268 5.90398C29.0688 4.24798 27.6828 3.25797 25.8468 3.25797C23.9208 3.25797 22.4808 4.24798 21.9408 5.92198C21.7608 6.47998 21.6528 7.23598 21.6528 7.97398C21.6528 8.69398 21.7608 9.44998 21.9588 10.026C22.4808 11.718 23.9388 12.744 25.8288 12.744ZM25.8288 10.944C24.8928 10.944 24.2088 10.404 23.9388 9.50398C23.8308 9.12598 23.7588 8.54998 23.7588 7.99198C23.7588 7.39798 23.8308 6.85798 23.9388 6.47998C24.2088 5.57998 24.8748 5.05798 25.7928 5.05798C26.7108 5.05798 27.3948 5.57998 27.6648 6.47998C27.7728 6.85798 27.8448 7.39798 27.8448 7.99198C27.8448 8.53198 27.7908 9.08998 27.6468 9.50398C27.3768 10.404 26.7108 10.944 25.8288 10.944ZM37.2317 3.68997V9.08998C37.2317 10.206 36.5297 10.944 35.4497 10.944C34.3697 10.944 33.7757 10.206 33.7757 9.08998V3.68997C33.7757 3.50998 33.6677 3.40197 33.4877 3.40197H31.9757C31.7957 3.40197 31.6877 3.50998 31.6877 3.68997V9.68398C31.6877 11.718 33.1997 12.726 34.9097 12.726C35.9177 12.726 36.6377 12.402 37.1057 11.808C37.1597 11.718 37.2317 11.754 37.2317 11.844V12.312C37.2317 12.492 37.3397 12.6 37.5197 12.6H39.0137C39.1937 12.6 39.3017 12.492 39.3017 12.312V3.68997C39.3017 3.50998 39.1937 3.40197 39.0137 3.40197H37.5197C37.3397 3.40197 37.2317 3.50998 37.2317 3.68997ZM46.2834 4.80598V3.68997C46.2834 3.50998 46.1754 3.40197 45.9954 3.40197H44.2494C44.1774 3.40197 44.1414 3.34798 44.1414 3.29398V1.27798C44.1414 1.09797 44.0334 0.989975 43.8534 0.989975H42.4314C42.2514 0.989975 42.1434 1.09797 42.1434 1.27798V3.29398C42.1434 3.36598 42.1074 3.40197 42.0354 3.40197H41.0994C40.9194 3.40197 40.8114 3.50998 40.8114 3.68997V4.80598C40.8114 4.98598 40.9194 5.09398 41.0994 5.09398H42.0354C42.1074 5.09398 42.1434 5.14797 42.1434 5.20198V10.242C42.1614 12.15 43.2594 12.582 44.9874 12.582C45.2754 12.582 45.5634 12.564 45.8514 12.564C46.0494 12.546 46.1394 12.438 46.1394 12.258V11.052C46.1394 10.872 46.0314 10.764 45.8514 10.764H45.3834C44.5374 10.764 44.1414 10.386 44.1414 9.44998V5.20198C44.1414 5.12998 44.1774 5.09398 44.2494 5.09398H45.9954C46.1754 5.09398 46.2834 4.98598 46.2834 4.80598Z" fill="white"/>
</svg>
