<svg width="77" height="12" viewBox="0 0 77 12" fill="none" xmlns="http://www.w3.org/2000/svg">
<path d="M9.7576 8.05505C9.7576 8.35505 9.6576 8.68005 9.4576 9.03005C9.2626 9.38005 8.9776 9.71255 8.6026 10.0275C8.2326 10.3375 7.7726 10.5925 7.2226 10.7925C6.6776 10.9925 6.0526 11.0925 5.3476 11.0925C4.2626 11.0925 3.3201 10.8575 2.5201 10.3875C1.7201 9.91755 1.1001 9.26755 0.660098 8.43755C0.220098 7.60255 9.76585e-05 6.64005 9.76585e-05 5.55005C9.76585e-05 4.76505 0.130098 4.03755 0.390098 3.36755C0.655098 2.69255 1.0226 2.10505 1.4926 1.60505C1.9626 1.10505 2.5076 0.715048 3.1276 0.435048C3.7526 0.155048 4.4251 0.0150482 5.1451 0.0150482C5.6351 0.0150482 6.0251 0.0575481 6.3151 0.142548C6.6101 0.227548 6.8451 0.312548 7.0201 0.397548C7.1951 0.482548 7.3501 0.525048 7.4851 0.525048C7.6051 0.525048 7.7076 0.487548 7.7926 0.412548C7.8776 0.337548 7.9626 0.262548 8.0476 0.187548C8.1376 0.112548 8.2376 0.0750483 8.3476 0.0750483C8.5326 0.0750483 8.6601 0.125048 8.7301 0.225048C8.8051 0.320048 8.8751 0.482549 8.9401 0.712549L9.6676 3.14255C9.7226 3.33755 9.6951 3.50255 9.5851 3.63755C9.4801 3.77255 9.3276 3.85755 9.1276 3.89255C8.9676 3.91755 8.8151 3.89505 8.6701 3.82505C8.5251 3.75505 8.4051 3.62005 8.3101 3.42005C8.0501 2.87005 7.7751 2.44005 7.4851 2.13005C7.2001 1.81505 6.8926 1.59505 6.5626 1.47005C6.2326 1.34005 5.8801 1.27505 5.5051 1.27505C5.1001 1.27505 4.7376 1.37005 4.4176 1.56005C4.0976 1.75005 3.8251 2.02005 3.6001 2.37005C3.3751 2.72005 3.2051 3.13255 3.0901 3.60755C2.9751 4.08255 2.9176 4.60755 2.9176 5.18255C2.9176 6.04755 3.0576 6.78255 3.3376 7.38755C3.6176 7.99255 4.0026 8.45505 4.4926 8.77505C4.9826 9.09005 5.5451 9.24755 6.1801 9.24755C6.7051 9.24755 7.1776 9.13505 7.5976 8.91005C8.0226 8.68505 8.4076 8.36005 8.7526 7.93505C8.9126 7.76005 9.0501 7.65005 9.1651 7.60505C9.2801 7.55505 9.3851 7.54755 9.4801 7.58255C9.5751 7.61255 9.6451 7.67005 9.6901 7.75505C9.7351 7.83505 9.7576 7.93505 9.7576 8.05505ZM16.1199 0.0150482C16.9549 0.0150482 17.7099 0.152548 18.3849 0.427549C19.0599 0.702548 19.6374 1.08505 20.1174 1.57505C20.5974 2.06505 20.9674 2.64505 21.2274 3.31505C21.4874 3.98005 21.6174 4.70755 21.6174 5.49755C21.6174 6.31255 21.4874 7.06255 21.2274 7.74755C20.9724 8.42755 20.6049 9.01755 20.1249 9.51755C19.6499 10.0175 19.0749 10.405 18.3999 10.68C17.7249 10.955 16.9674 11.0925 16.1274 11.0925C15.2824 11.0925 14.5224 10.9575 13.8474 10.6875C13.1724 10.4125 12.5949 10.025 12.1149 9.52505C11.6399 9.02505 11.2749 8.43255 11.0199 7.74755C10.7699 7.06255 10.6449 6.30505 10.6449 5.47505C10.6449 4.71505 10.7699 4.00755 11.0199 3.35255C11.2699 2.69255 11.6299 2.11255 12.0999 1.61255C12.5749 1.11255 13.1499 0.722548 13.8249 0.442549C14.5049 0.157548 15.2699 0.0150482 16.1199 0.0150482ZM18.6324 7.17755C18.6324 6.57255 18.5749 5.98505 18.4599 5.41505C18.3449 4.84005 18.1849 4.30755 17.9799 3.81755C17.7749 3.32255 17.5374 2.89005 17.2674 2.52005C16.9974 2.14505 16.7049 1.85255 16.3899 1.64255C16.0799 1.43255 15.7649 1.32755 15.4449 1.32755C15.0649 1.32755 14.7424 1.43005 14.4774 1.63505C14.2124 1.84005 14.0099 2.13755 13.8699 2.52755C13.7299 2.91255 13.6599 3.38005 13.6599 3.93005C13.6599 4.55005 13.7199 5.14755 13.8399 5.72255C13.9599 6.29755 14.1249 6.83255 14.3349 7.32755C14.5449 7.81755 14.7849 8.24505 15.0549 8.61005C15.3249 8.97505 15.6124 9.26005 15.9174 9.46505C16.2224 9.67005 16.5299 9.77255 16.8399 9.77255C17.1999 9.77255 17.5149 9.67755 17.7849 9.48755C18.0549 9.29755 18.2624 9.01005 18.4074 8.62505C18.5574 8.24005 18.6324 7.75755 18.6324 7.17755ZM26.3966 10.155C26.3966 10.355 26.3366 10.5125 26.2166 10.6275C26.0966 10.7425 25.9091 10.8 25.6541 10.8H23.4491C23.1991 10.8 23.0141 10.7425 22.8941 10.6275C22.7741 10.5125 22.7141 10.355 22.7141 10.155C22.7141 9.84005 22.8841 9.59755 23.2241 9.42755L23.4341 9.33755C23.5841 9.27255 23.6941 9.19255 23.7641 9.09755C23.8341 9.00255 23.8691 8.85005 23.8691 8.64005V3.26255C23.8691 2.98755 23.8366 2.78255 23.7716 2.64755C23.7116 2.50755 23.6166 2.36255 23.4866 2.21255L22.9316 1.58255C22.8066 1.44255 22.7066 1.32505 22.6316 1.23005C22.5616 1.13005 22.5266 1.00755 22.5266 0.862548C22.5266 0.692548 22.5866 0.557548 22.7066 0.457548C22.8266 0.352548 22.9816 0.300048 23.1716 0.300048H25.0316C25.2416 0.300048 25.4191 0.322548 25.5641 0.367549C25.7091 0.412548 25.8691 0.547548 26.0441 0.772549L31.2866 7.48505L30.9416 8.83505V2.46005C30.9416 2.25005 30.9066 2.09755 30.8366 2.00255C30.7666 1.90755 30.6541 1.82755 30.4991 1.76255L30.2891 1.67255C29.9491 1.50255 29.7791 1.26005 29.7791 0.945049C29.7791 0.745048 29.8391 0.587548 29.9591 0.472548C30.0791 0.357548 30.2641 0.300048 30.5141 0.300048H32.7191C32.9741 0.300048 33.1616 0.357548 33.2816 0.472548C33.4016 0.587548 33.4616 0.745048 33.4616 0.945049C33.4616 1.26005 33.2891 1.50255 32.9441 1.67255L32.7341 1.76255C32.5791 1.83255 32.4666 1.91255 32.3966 2.00255C32.3316 2.09255 32.2991 2.24505 32.2991 2.46005V7.90505C32.2991 8.14005 32.3216 8.34755 32.3666 8.52755C32.4116 8.70755 32.4791 8.87505 32.5691 9.03005L32.8391 9.46505C32.9441 9.63505 33.0166 9.76505 33.0566 9.85505C33.1016 9.94505 33.1241 10.05 33.1241 10.17C33.1241 10.36 33.0641 10.5125 32.9441 10.6275C32.8241 10.7425 32.6666 10.8 32.4716 10.8H30.4016C30.0266 10.8 29.8391 10.63 29.8391 10.29C29.8391 10.165 29.8016 10.0525 29.7266 9.95255C29.6566 9.84755 29.5316 9.68005 29.3516 9.45005L24.5516 3.29255L25.2341 2.43755V8.64005C25.2341 8.85505 25.2666 9.00755 25.3316 9.09755C25.3966 9.18255 25.5091 9.26255 25.6691 9.33755L25.8791 9.42755C26.2241 9.59755 26.3966 9.84005 26.3966 10.155ZM37.1412 0.300048H41.4612C41.6912 0.300048 41.8862 0.275048 42.0462 0.225048C42.2112 0.175048 42.3612 0.125048 42.4962 0.0750483C42.6362 0.0250484 42.7812 4.8399e-05 42.9312 4.8399e-05C43.2112 4.8399e-05 43.4212 0.0750483 43.5612 0.225048C43.7062 0.370048 43.8187 0.605048 43.8987 0.930048L44.3712 2.84255C44.4312 3.08255 44.4137 3.28505 44.3187 3.45005C44.2287 3.61005 44.0837 3.70755 43.8837 3.74255C43.7037 3.78255 43.5437 3.76755 43.4037 3.69755C43.2687 3.62255 43.1512 3.47755 43.0512 3.26255C42.8612 2.83755 42.6887 2.51505 42.5337 2.29505C42.3787 2.07005 42.2137 1.91755 42.0387 1.83755C41.8687 1.75755 41.6612 1.71755 41.4162 1.71755H40.7562V8.69255C40.7562 8.88755 40.7962 9.03255 40.8762 9.12755C40.9562 9.21755 41.0612 9.28755 41.1912 9.33755L41.5212 9.45755C41.8212 9.60255 41.9712 9.83505 41.9712 10.155C41.9712 10.585 41.7237 10.8 41.2287 10.8H37.3662C37.1162 10.8 36.9312 10.7425 36.8112 10.6275C36.6912 10.5125 36.6312 10.3525 36.6312 10.1475C36.6312 9.83255 36.7812 9.60255 37.0812 9.45755L37.4112 9.33755C37.5412 9.28755 37.6462 9.21755 37.7262 9.12755C37.8062 9.03255 37.8462 8.88755 37.8462 8.69255V1.71755H37.1862C36.9412 1.71755 36.7312 1.75755 36.5562 1.83755C36.3862 1.91755 36.2237 2.07005 36.0687 2.29505C35.9137 2.51505 35.7412 2.83755 35.5512 3.26255C35.4562 3.47755 35.3387 3.62255 35.1987 3.69755C35.0637 3.76755 34.9012 3.78255 34.7112 3.74255C34.5162 3.70755 34.3737 3.61005 34.2837 3.45005C34.1937 3.28505 34.1762 3.08255 34.2312 2.84255L34.7037 0.930048C34.7887 0.605048 34.9012 0.370048 35.0412 0.225048C35.1812 0.0750483 35.3887 4.8399e-05 35.6637 4.8399e-05C35.8187 4.8399e-05 35.9637 0.0250484 36.0987 0.0750483C36.2387 0.125048 36.3887 0.175048 36.5487 0.225048C36.7137 0.275048 36.9112 0.300048 37.1412 0.300048ZM46.8515 6.15005H51.5165L51.5315 7.50005H46.8215L46.8515 6.15005ZM48.0815 10.155C48.0815 10.355 48.0215 10.5125 47.9015 10.6275C47.7815 10.7425 47.594 10.8 47.339 10.8H45.164C44.914 10.8 44.7265 10.7425 44.6015 10.6275C44.4815 10.5125 44.4215 10.355 44.4215 10.155C44.4215 10.015 44.454 9.89755 44.519 9.80255C44.584 9.70755 44.6865 9.61005 44.8265 9.51005L45.029 9.39755C45.134 9.33255 45.2165 9.25255 45.2765 9.15755C45.3415 9.06255 45.424 8.85505 45.524 8.53505L47.4965 2.40755C47.5765 2.17255 47.6065 2.00255 47.5865 1.89755C47.5715 1.79255 47.474 1.69755 47.294 1.61255C47.144 1.54255 47.0315 1.45505 46.9565 1.35005C46.8815 1.24005 46.844 1.10505 46.844 0.945049C46.844 0.745048 46.904 0.587548 47.024 0.472548C47.149 0.357548 47.3365 0.300048 47.5865 0.300048H52.1315C52.3815 0.300048 52.5665 0.360048 52.6865 0.480048C52.8115 0.595048 52.874 0.750049 52.874 0.945049C52.874 1.11505 52.8315 1.25505 52.7465 1.36505C52.6665 1.47505 52.5465 1.56755 52.3865 1.64255C52.2715 1.69755 52.209 1.78255 52.199 1.89755C52.189 2.00755 52.214 2.16005 52.274 2.35505L54.164 8.15255C54.289 8.54255 54.3965 8.83005 54.4865 9.01505C54.5765 9.19505 54.7065 9.32755 54.8765 9.41255C55.0765 9.52255 55.214 9.63255 55.289 9.74255C55.364 9.84755 55.4015 9.98505 55.4015 10.155C55.4015 10.355 55.3415 10.5125 55.2215 10.6275C55.1015 10.7425 54.914 10.8 54.659 10.8H51.224C50.969 10.8 50.7815 10.7425 50.6615 10.6275C50.5415 10.5125 50.4815 10.355 50.4815 10.155C50.4815 9.99505 50.519 9.86505 50.594 9.76505C50.669 9.66005 50.7815 9.57255 50.9315 9.50255L51.2765 9.39005C51.4015 9.33505 51.4515 9.24755 51.4265 9.12755C51.4065 9.00755 51.3565 8.82255 51.2765 8.57255L49.049 1.47005L49.2515 1.48505L47.0765 8.26505C47.0065 8.48505 46.949 8.66255 46.904 8.79755C46.859 8.92755 46.8615 9.03755 46.9115 9.12755C46.9615 9.21255 47.0865 9.30505 47.2865 9.40505L47.6315 9.52505C47.7665 9.59005 47.874 9.67255 47.954 9.77255C48.039 9.86755 48.0815 9.99505 48.0815 10.155ZM65.926 8.05505C65.926 8.35505 65.826 8.68005 65.626 9.03005C65.431 9.38005 65.146 9.71255 64.771 10.0275C64.401 10.3375 63.941 10.5925 63.391 10.7925C62.846 10.9925 62.221 11.0925 61.516 11.0925C60.431 11.0925 59.4885 10.8575 58.6885 10.3875C57.8885 9.91755 57.2685 9.26755 56.8285 8.43755C56.3885 7.60255 56.1685 6.64005 56.1685 5.55005C56.1685 4.76505 56.2985 4.03755 56.5585 3.36755C56.8235 2.69255 57.191 2.10505 57.661 1.60505C58.131 1.10505 58.676 0.715048 59.296 0.435048C59.921 0.155048 60.5935 0.0150482 61.3135 0.0150482C61.8035 0.0150482 62.1935 0.0575481 62.4835 0.142548C62.7785 0.227548 63.0135 0.312548 63.1885 0.397548C63.3635 0.482548 63.5185 0.525048 63.6535 0.525048C63.7735 0.525048 63.876 0.487548 63.961 0.412548C64.046 0.337548 64.131 0.262548 64.216 0.187548C64.306 0.112548 64.406 0.0750483 64.516 0.0750483C64.701 0.0750483 64.8285 0.125048 64.8985 0.225048C64.9735 0.320048 65.0435 0.482549 65.1085 0.712549L65.836 3.14255C65.891 3.33755 65.8635 3.50255 65.7535 3.63755C65.6485 3.77255 65.496 3.85755 65.296 3.89255C65.136 3.91755 64.9835 3.89505 64.8385 3.82505C64.6935 3.75505 64.5735 3.62005 64.4785 3.42005C64.2185 2.87005 63.9435 2.44005 63.6535 2.13005C63.3685 1.81505 63.061 1.59505 62.731 1.47005C62.401 1.34005 62.0485 1.27505 61.6735 1.27505C61.2685 1.27505 60.906 1.37005 60.586 1.56005C60.266 1.75005 59.9935 2.02005 59.7685 2.37005C59.5435 2.72005 59.3735 3.13255 59.2585 3.60755C59.1435 4.08255 59.086 4.60755 59.086 5.18255C59.086 6.04755 59.226 6.78255 59.506 7.38755C59.786 7.99255 60.171 8.45505 60.661 8.77505C61.151 9.09005 61.7135 9.24755 62.3485 9.24755C62.8735 9.24755 63.346 9.13505 63.766 8.91005C64.191 8.68505 64.576 8.36005 64.921 7.93505C65.081 7.76005 65.2185 7.65005 65.3335 7.60505C65.4485 7.55505 65.5535 7.54755 65.6485 7.58255C65.7435 7.61255 65.8135 7.67005 65.8585 7.75505C65.9035 7.83505 65.926 7.93505 65.926 8.05505ZM69.5883 0.300048H73.9083C74.1383 0.300048 74.3333 0.275048 74.4933 0.225048C74.6583 0.175048 74.8083 0.125048 74.9433 0.0750483C75.0833 0.0250484 75.2283 4.8399e-05 75.3783 4.8399e-05C75.6583 4.8399e-05 75.8683 0.0750483 76.0083 0.225048C76.1533 0.370048 76.2658 0.605048 76.3458 0.930048L76.8183 2.84255C76.8783 3.08255 76.8608 3.28505 76.7658 3.45005C76.6758 3.61005 76.5308 3.70755 76.3308 3.74255C76.1508 3.78255 75.9908 3.76755 75.8508 3.69755C75.7158 3.62255 75.5983 3.47755 75.4983 3.26255C75.3083 2.83755 75.1358 2.51505 74.9808 2.29505C74.8258 2.07005 74.6608 1.91755 74.4858 1.83755C74.3158 1.75755 74.1083 1.71755 73.8633 1.71755H73.2033V8.69255C73.2033 8.88755 73.2433 9.03255 73.3233 9.12755C73.4033 9.21755 73.5083 9.28755 73.6383 9.33755L73.9683 9.45755C74.2683 9.60255 74.4183 9.83505 74.4183 10.155C74.4183 10.585 74.1708 10.8 73.6758 10.8H69.8133C69.5633 10.8 69.3783 10.7425 69.2583 10.6275C69.1383 10.5125 69.0783 10.3525 69.0783 10.1475C69.0783 9.83255 69.2283 9.60255 69.5283 9.45755L69.8583 9.33755C69.9883 9.28755 70.0933 9.21755 70.1733 9.12755C70.2533 9.03255 70.2933 8.88755 70.2933 8.69255V1.71755H69.6333C69.3883 1.71755 69.1783 1.75755 69.0033 1.83755C68.8333 1.91755 68.6708 2.07005 68.5158 2.29505C68.3608 2.51505 68.1883 2.83755 67.9983 3.26255C67.9033 3.47755 67.7858 3.62255 67.6458 3.69755C67.5108 3.76755 67.3483 3.78255 67.1583 3.74255C66.9633 3.70755 66.8208 3.61005 66.7308 3.45005C66.6408 3.28505 66.6233 3.08255 66.6783 2.84255L67.1508 0.930048C67.2358 0.605048 67.3483 0.370048 67.4883 0.225048C67.6283 0.0750483 67.8358 4.8399e-05 68.1108 4.8399e-05C68.2658 4.8399e-05 68.4108 0.0250484 68.5458 0.0750483C68.6858 0.125048 68.8358 0.175048 68.9958 0.225048C69.1608 0.275048 69.3583 0.300048 69.5883 0.300048Z" fill="white"/>
</svg>
