<svg width="64" height="17" viewBox="0 0 64 17" fill="none" xmlns="http://www.w3.org/2000/svg">
<path d="M5.16595 0.288005H0.287945C0.107945 0.288005 -5.46575e-05 0.396005 -5.46575e-05 0.576005V12.618C-5.46575e-05 12.798 0.107945 12.906 0.287945 12.906H1.79995C1.97995 12.906 2.08795 12.798 2.08795 12.618V7.86601C2.08795 7.79401 2.14195 7.75801 2.19595 7.75801H5.05795C7.41595 7.75801 8.98195 6.28201 8.98195 4.05001C8.98195 1.80001 7.45195 0.288005 5.16595 0.288005ZM4.85995 6.06601H2.19595C2.12395 6.06601 2.08795 6.01201 2.08795 5.95801V2.19601C2.08795 2.12401 2.14195 2.08801 2.19595 2.08801H4.85995C6.08395 2.08801 6.89395 2.898 6.89395 4.10401C6.89395 5.27401 6.08395 6.06601 4.85995 6.06601ZM14.7705 3.60001C13.8345 3.60001 13.1505 4.03201 12.6825 4.73401C12.6285 4.82401 12.5745 4.78801 12.5745 4.69801V3.99601C12.5745 3.81601 12.4665 3.70801 12.2865 3.70801H10.7745C10.5945 3.70801 10.4865 3.81601 10.4865 3.99601V12.618C10.4865 12.798 10.5945 12.906 10.7745 12.906H12.2865C12.4665 12.906 12.5745 12.798 12.5745 12.618V7.59601C12.5745 6.49801 13.3665 5.83201 14.3385 5.77801C14.6985 5.72401 15.0225 5.76001 15.2565 5.83201C15.4545 5.88601 15.5625 5.85001 15.5985 5.65201L15.8865 4.15801C15.9225 3.99601 15.8685 3.87001 15.7245 3.79801C15.4905 3.69001 15.2025 3.60001 14.7705 3.60001ZM20.8737 13.05C22.7277 13.05 24.1497 12.024 24.6897 10.314C24.8877 9.72001 24.9957 8.96401 24.9957 8.26201C24.9957 7.54201 24.8877 6.78601 24.6717 6.21001C24.1137 4.55401 22.7277 3.564 20.8917 3.564C18.9657 3.564 17.5257 4.55401 16.9857 6.22801C16.8057 6.78601 16.6977 7.54201 16.6977 8.28001C16.6977 9.00001 16.8057 9.75601 17.0037 10.332C17.5257 12.024 18.9837 13.05 20.8737 13.05ZM20.8737 11.25C19.9377 11.25 19.2537 10.71 18.9837 9.81001C18.8757 9.43201 18.8037 8.85601 18.8037 8.29801C18.8037 7.70401 18.8757 7.16401 18.9837 6.78601C19.2537 5.88601 19.9197 5.36401 20.8377 5.36401C21.7557 5.36401 22.4397 5.88601 22.7097 6.78601C22.8177 7.16401 22.8897 7.70401 22.8897 8.29801C22.8897 8.83801 22.8357 9.39601 22.6917 9.81001C22.4217 10.71 21.7557 11.25 20.8737 11.25ZM27.9746 2.61001C28.7846 2.61001 29.3426 2.03401 29.3426 1.29601C29.3426 0.558005 28.7126 5.72205e-06 27.9746 5.72205e-06C27.2726 5.72205e-06 26.6426 0.558005 26.6426 1.29601C26.6426 2.03401 27.1826 2.61001 27.9746 2.61001ZM25.0946 16.596C28.0646 16.632 29.0186 15.714 29.0186 13.194V3.99601C29.0186 3.81601 28.9106 3.70801 28.7306 3.70801H27.2186C27.0386 3.70801 26.9306 3.81601 26.9306 3.99601V13.212C26.9306 14.346 26.4266 14.85 25.1126 14.85C24.9146 14.832 24.8066 14.94 24.8066 15.12V16.308C24.8066 16.488 24.9146 16.596 25.0946 16.596ZM35.2462 11.286C34.1302 11.286 33.3562 10.764 33.1042 9.91801C33.0322 9.72001 32.9962 9.45001 32.9962 9.12601C32.9962 9.05401 33.0322 9.01801 33.1042 9.01801H38.6842C38.8642 9.01801 38.9722 8.91001 38.9722 8.73001C38.9542 8.20801 38.9182 7.70401 38.8462 7.25401C38.4862 4.96801 37.3162 3.564 34.9042 3.564C32.9782 3.564 31.5562 4.66201 31.1062 6.35401C30.9442 6.89401 30.9082 7.47001 30.9082 8.26201C30.9082 9.09001 31.0342 9.84601 31.2682 10.494C31.8262 12.06 33.1042 13.05 35.0482 13.05C36.6322 13.05 37.8562 12.366 38.5402 11.286C38.6482 11.124 38.5942 10.998 38.4682 10.89L37.6042 10.206C37.4602 10.098 37.3162 10.134 37.2082 10.296C36.8122 10.872 36.1462 11.25 35.2462 11.286ZM34.8862 5.36401C35.8582 5.36401 36.5062 5.90401 36.7222 6.73201C36.7762 6.89401 36.7942 7.11001 36.8302 7.38001C36.8302 7.45201 36.7942 7.48801 36.7222 7.48801H33.1042C33.0322 7.48801 32.9962 7.45201 33.0142 7.38001C33.0322 7.07401 33.0862 6.84001 33.1582 6.62401C33.3742 5.86801 33.9502 5.36401 34.8862 5.36401ZM44.5855 13.05C46.4395 13.05 47.9515 12.096 48.4195 10.548C48.4555 10.422 48.4735 10.296 48.4915 10.188C48.5275 10.008 48.4375 9.90001 48.2575 9.86401L46.7635 9.63001C46.5835 9.59401 46.4395 9.79201 46.4215 9.88201C46.4215 9.88201 46.4215 9.91801 46.4035 9.97201C46.2055 10.746 45.5035 11.25 44.5855 11.25C43.6315 11.25 43.0015 10.71 42.7675 9.88201C42.6775 9.54001 42.6055 9.01801 42.6055 8.28001C42.6055 7.57801 42.6775 7.02001 42.7855 6.67801C43.0015 5.88601 43.6495 5.36401 44.5855 5.36401C45.5575 5.36401 46.2595 5.94001 46.4215 6.64201L46.4755 6.87601C46.5115 7.03801 46.6195 7.12801 46.7995 7.09201L48.2935 6.85801C48.4735 6.82201 48.5635 6.73201 48.5275 6.53401C48.5095 6.40801 48.4915 6.22801 48.4195 6.03001C47.9875 4.64401 46.5115 3.564 44.5855 3.564C42.7315 3.564 41.2915 4.55401 40.7875 6.13801C40.6075 6.66001 40.4995 7.32601 40.4995 8.26201C40.4995 9.09001 40.5715 9.81001 40.7875 10.422C41.3095 12.024 42.7315 13.05 44.5855 13.05ZM55.0634 5.11201V3.99601C55.0634 3.81601 54.9554 3.70801 54.7754 3.70801H53.0294C52.9574 3.70801 52.9214 3.65401 52.9214 3.60001V1.58401C52.9214 1.404 52.8134 1.29601 52.6334 1.29601H51.2114C51.0314 1.29601 50.9234 1.404 50.9234 1.58401V3.60001C50.9234 3.67201 50.8874 3.70801 50.8154 3.70801H49.8794C49.6994 3.70801 49.5914 3.81601 49.5914 3.99601V5.11201C49.5914 5.29201 49.6994 5.40001 49.8794 5.40001H50.8154C50.8874 5.40001 50.9234 5.45401 50.9234 5.50801V10.548C50.9414 12.456 52.0394 12.888 53.7674 12.888C54.0554 12.888 54.3434 12.87 54.6314 12.87C54.8294 12.852 54.9194 12.744 54.9194 12.564V11.358C54.9194 11.178 54.8114 11.07 54.6314 11.07H54.1634C53.3174 11.07 52.9214 10.692 52.9214 9.75601V5.50801C52.9214 5.43601 52.9574 5.40001 53.0294 5.40001H54.7754C54.9554 5.40001 55.0634 5.29201 55.0634 5.11201ZM60.2272 13.014C62.4412 13.014 63.9172 12.006 63.9172 10.278C63.9172 8.47801 62.2432 7.92001 60.7492 7.48801C59.5432 7.14601 58.5352 6.96601 58.5352 6.22801C58.5352 5.58001 59.2012 5.23801 60.1192 5.23801C61.1992 5.23801 61.8292 5.74201 61.8292 6.33601V6.44401C61.8292 6.51601 61.9372 6.55201 62.1172 6.55201H63.5032C63.6832 6.55201 63.7912 6.46201 63.7912 6.33601C63.7912 4.73401 62.3332 3.60001 60.1192 3.60001C57.9952 3.60001 56.5372 4.64401 56.5372 6.35401C56.5372 8.11801 58.1392 8.69401 59.5792 9.12601C60.7672 9.52201 61.8292 9.64801 61.8292 10.404C61.8292 10.998 61.1812 11.448 60.2092 11.448C59.1652 11.448 58.4632 10.926 58.4632 10.332V10.206C58.4632 10.134 58.3552 10.08 58.1752 10.08H56.7352C56.5552 10.08 56.4472 10.188 56.4472 10.368V10.458C56.4472 11.916 57.9232 13.014 60.2272 13.014Z" fill="white"/>
</svg>
