<svg width="67" height="14" viewBox="0 0 67 14" fill="none" xmlns="http://www.w3.org/2000/svg">
<path d="M4.55379 13.104C7.32579 13.104 9.01779 11.682 9.01779 9.57596C9.01779 7.27196 6.94779 6.51596 5.11179 5.81396C3.04179 5.05796 2.17779 4.69796 2.17779 3.59996C2.17779 2.59196 2.93379 2.01596 4.26579 2.01596C5.95779 2.01596 6.87579 2.95196 6.87579 4.03196V4.22996C6.87579 4.35596 6.98379 4.44596 7.16379 4.44596H8.63979C8.81979 4.44596 8.92779 4.33796 8.92779 4.15796V3.92396C8.92779 1.70996 7.09179 0.215961 4.35579 0.215961C1.81779 0.215961 0.125788 1.49396 0.125788 3.63596C0.125788 5.92196 2.06979 6.69596 4.04979 7.41596C5.99379 8.17196 6.92979 8.58596 6.92979 9.62996C6.92979 10.548 6.26379 11.304 4.71579 11.304C3.05979 11.304 2.05179 10.44 2.05179 9.37796V9.08996C2.05179 8.90996 1.94379 8.81996 1.76379 8.81996H0.287788C0.107788 8.81996 -0.000212103 8.92796 -0.000212103 9.10796V9.48596C-0.000212103 11.682 1.78179 13.104 4.55379 13.104ZM14.9164 11.34C13.8004 11.34 13.0264 10.818 12.7744 9.97196C12.7024 9.77396 12.6664 9.50396 12.6664 9.17996C12.6664 9.10796 12.7024 9.07196 12.7744 9.07196H18.3544C18.5344 9.07196 18.6424 8.96396 18.6424 8.78396C18.6244 8.26196 18.5884 7.75796 18.5164 7.30796C18.1564 5.02196 16.9864 3.61796 14.5744 3.61796C12.6484 3.61796 11.2264 4.71596 10.7764 6.40796C10.6144 6.94796 10.5784 7.52396 10.5784 8.31596C10.5784 9.14396 10.7044 9.89996 10.9384 10.548C11.4964 12.114 12.7744 13.104 14.7184 13.104C16.3024 13.104 17.5264 12.42 18.2104 11.34C18.3184 11.178 18.2644 11.052 18.1384 10.944L17.2744 10.26C17.1304 10.152 16.9864 10.188 16.8784 10.35C16.4824 10.926 15.8164 11.304 14.9164 11.34ZM14.5564 5.41796C15.5284 5.41796 16.1764 5.95796 16.3924 6.78596C16.4464 6.94796 16.4644 7.16396 16.5004 7.43396C16.5004 7.50596 16.4644 7.54196 16.3924 7.54196H12.7744C12.7024 7.54196 12.6664 7.50596 12.6844 7.43396C12.7024 7.12796 12.7564 6.89396 12.8284 6.67796C13.0444 5.92196 13.6204 5.41796 14.5564 5.41796ZM24.7057 3.65396C23.7697 3.65396 23.0857 4.08596 22.6177 4.78796C22.5637 4.87796 22.5097 4.84196 22.5097 4.75196V4.04996C22.5097 3.86996 22.4017 3.76196 22.2217 3.76196H20.7097C20.5297 3.76196 20.4217 3.86996 20.4217 4.04996V12.672C20.4217 12.852 20.5297 12.96 20.7097 12.96H22.2217C22.4017 12.96 22.5097 12.852 22.5097 12.672V7.64996C22.5097 6.55196 23.3017 5.88596 24.2737 5.83196C24.6337 5.77796 24.9577 5.81396 25.1917 5.88596C25.3897 5.93996 25.4977 5.90396 25.5337 5.70596L25.8217 4.21196C25.8577 4.04996 25.8037 3.92396 25.6597 3.85196C25.4257 3.74396 25.1377 3.65396 24.7057 3.65396ZM29.9155 12.96H31.6615C31.8235 12.96 31.9315 12.888 31.9855 12.726L34.8115 4.10396C34.8835 3.90596 34.7755 3.77996 34.5775 3.77996L32.8855 3.76196C32.7235 3.76196 32.6155 3.83396 32.5615 4.01396L30.8515 9.97196C30.8155 10.062 30.7435 10.062 30.7075 9.97196L28.9975 3.99596C28.9435 3.83396 28.8355 3.76196 28.6735 3.76196H26.9815C26.7835 3.76196 26.6755 3.86996 26.7475 4.08596L29.5915 12.726C29.6455 12.888 29.7535 12.96 29.9155 12.96ZM37.4893 2.60996C38.2813 2.60996 38.8213 2.06996 38.8213 1.29596C38.8213 0.53996 38.2813 -3.95775e-05 37.4893 -3.95775e-05C36.6973 -3.95775e-05 36.1393 0.53996 36.1393 1.29596C36.1393 2.06996 36.6973 2.60996 37.4893 2.60996ZM36.7333 12.96H38.2453C38.4253 12.96 38.5333 12.852 38.5333 12.672V4.04996C38.5333 3.86996 38.4253 3.76196 38.2453 3.76196H36.7333C36.5533 3.76196 36.4453 3.86996 36.4453 4.04996V12.672C36.4453 12.852 36.5533 12.96 36.7333 12.96ZM44.5946 13.104C46.4486 13.104 47.9606 12.15 48.4286 10.602C48.4646 10.476 48.4826 10.35 48.5006 10.242C48.5366 10.062 48.4466 9.95396 48.2666 9.91796L46.7726 9.68396C46.5926 9.64796 46.4486 9.84596 46.4306 9.93596C46.4306 9.93596 46.4306 9.97196 46.4126 10.026C46.2146 10.8 45.5126 11.304 44.5946 11.304C43.6406 11.304 43.0106 10.764 42.7766 9.93596C42.6866 9.59396 42.6146 9.07196 42.6146 8.33396C42.6146 7.63196 42.6866 7.07396 42.7946 6.73196C43.0106 5.93996 43.6586 5.41796 44.5946 5.41796C45.5666 5.41796 46.2686 5.99396 46.4306 6.69596L46.4846 6.92996C46.5206 7.09196 46.6286 7.18196 46.8086 7.14596L48.3026 6.91196C48.4826 6.87596 48.5726 6.78596 48.5366 6.58796C48.5186 6.46196 48.5006 6.28196 48.4286 6.08396C47.9966 4.69796 46.5206 3.61796 44.5946 3.61796C42.7406 3.61796 41.3006 4.60796 40.7966 6.19196C40.6166 6.71396 40.5086 7.37996 40.5086 8.31596C40.5086 9.14396 40.5806 9.86396 40.7966 10.476C41.3186 12.078 42.7406 13.104 44.5946 13.104ZM54.2286 11.34C53.1126 11.34 52.3386 10.818 52.0866 9.97196C52.0146 9.77396 51.9786 9.50396 51.9786 9.17996C51.9786 9.10796 52.0146 9.07196 52.0866 9.07196H57.6666C57.8466 9.07196 57.9546 8.96396 57.9546 8.78396C57.9366 8.26196 57.9006 7.75796 57.8286 7.30796C57.4686 5.02196 56.2986 3.61796 53.8866 3.61796C51.9606 3.61796 50.5386 4.71596 50.0886 6.40796C49.9266 6.94796 49.8906 7.52396 49.8906 8.31596C49.8906 9.14396 50.0166 9.89996 50.2506 10.548C50.8086 12.114 52.0866 13.104 54.0306 13.104C55.6146 13.104 56.8386 12.42 57.5226 11.34C57.6306 11.178 57.5766 11.052 57.4506 10.944L56.5866 10.26C56.4426 10.152 56.2986 10.188 56.1906 10.35C55.7946 10.926 55.1286 11.304 54.2286 11.34ZM53.8686 5.41796C54.8406 5.41796 55.4886 5.95796 55.7046 6.78596C55.7586 6.94796 55.7766 7.16396 55.8126 7.43396C55.8126 7.50596 55.7766 7.54196 55.7046 7.54196H52.0866C52.0146 7.54196 51.9786 7.50596 51.9966 7.43396C52.0146 7.12796 52.0686 6.89396 52.1406 6.67796C52.3566 5.92196 52.9326 5.41796 53.8686 5.41796ZM63.1719 13.068C65.3859 13.068 66.8619 12.06 66.8619 10.332C66.8619 8.53196 65.1879 7.97396 63.6939 7.54196C62.4879 7.19996 61.4799 7.01996 61.4799 6.28196C61.4799 5.63396 62.1459 5.29196 63.0639 5.29196C64.1439 5.29196 64.7739 5.79596 64.7739 6.38996V6.49796C64.7739 6.56996 64.8819 6.60596 65.0619 6.60596H66.4479C66.6279 6.60596 66.7359 6.51596 66.7359 6.38996C66.7359 4.78796 65.2779 3.65396 63.0639 3.65396C60.9399 3.65396 59.4819 4.69796 59.4819 6.40796C59.4819 8.17196 61.0839 8.74796 62.5239 9.17996C63.7119 9.57596 64.7739 9.70196 64.7739 10.458C64.7739 11.052 64.1259 11.502 63.1539 11.502C62.1099 11.502 61.4079 10.98 61.4079 10.386V10.26C61.4079 10.188 61.2999 10.134 61.1199 10.134H59.6799C59.4999 10.134 59.3919 10.242 59.3919 10.422V10.512C59.3919 11.97 60.8679 13.068 63.1719 13.068Z" fill="white"/>
</svg>
